<?xml version="1.0" encoding="UTF-8" standalone="no"?>
<svg
   width="32"
   height="32"
   viewBox="0 0 24 24"
   version="1.1"
   id="svg2"
   sodipodi:docname="placeholder_texture.svg"
   inkscape:version="1.4.4 (dcaf3e7d9e, 2026-05-05)"
   xml:space="preserve"
   xmlns:inkscape="http://www.inkscape.org/namespaces/inkscape"
   xmlns:sodipodi="http://sodipodi.sourceforge.net/DTD/sodipodi-0.dtd"
   xmlns="http://www.w3.org/2000/svg"
   xmlns:svg="http://www.w3.org/2000/svg"
   xmlns:c2pa="http://c2pa.org/manifest"><metadata
     id="metadata1"><c2pa:manifest>AAAWgmp1bWIAAAAeanVtZGMycGEAEQAQgAAAqgA4m3EDYzJwYQAAABZcanVtYgAAAEdqdW1kYzJtYQARABCAAACqADibcQN1cm46YzJwYTo4ZDYzOGNmMC0zNTU2LTRlYzEtOThmMy05NjRkY2UzNWQwMWUAAAADl2p1bWIAAAApanVtZGMyYXMAEQAQgAAAqgA4m3EDYzJwYS5hc3NlcnRpb25zAAAAALxqdW1iAAAARGp1bWRjYm9yABEAEIAAAKoAOJtxE2MycGEuaW5ncmVkaWVudC52MwAAAAAYYzJzaPnQqX1o0YoWDlG+bei4Xc4AAABwY2JvcqNpZGM6Zm9ybWF0bWltYWdlL3N2Zyt4bWxqaW5zdGFuY2VJRHgseG1wOmlpZDpkMWRjNjU1Ny00ODIwLTQyMGItYjk2Mi04OGZjOWVmODM1N2FscmVsYXRpb25zaGlwaHBhcmVudE9mAAAB4mp1bWIAAABBanVtZGNib3IAEQAQgAAAqgA4m3ETYzJwYS5hY3Rpb25zLnYyAAAAABhjMnNo/Mn3Jw8+JsP/162la7+WVgAAAZljYm9yomdhY3Rpb25zgqJmYWN0aW9ua2MycGEub3BlbmVkanBhcmFtZXRlcnOha2luZ3JlZGllbnRzgaJjdXJseC1zZWxmI2p1bWJmPWMycGEuYXNzZXJ0aW9ucy9jMnBhLmluZ3JlZGllbnQudjNkaGFzaFggATZxjBzbQxciX+ydT51x1gPEt5FTfV5CB4Pkfaacd/ikZmFjdGlvbngdY29tLmFudGhyb3BpYy5jbGF1ZGUucHJvdmlkZWRqcGFyYW1ldGVyc6F4H2NvbS5hbnRocm9waWMub3JpZ2luLWNvbmZpZGVuY2VndW5rbm93bmtkZXNjcmlwdGlvbnhmQ2xhdWRlIHByb3ZpZGVkIHRoaXMgZmlsZSBhdCB0aGUgcmVxdWVzdCBvZiBhIHVzZXIgYW5kIG1heSBoYXZlIGNyZWF0ZWQgb3IgbW9kaWZpZWQgdGhlIGZpbGUgY29udGVudHMubXNvZnR3YXJlQWdlbnShZG5hbWVmQ2xhdWRlcmFsbEFjdGlvbnNJbmNsdWRlZPUAAADIanVtYgAAAEBqdW1kY2JvcgARABCAAACqADibcRNjMnBhLmhhc2guZGF0YQAAAAAYYzJzaHkEFYkQZkcb+8B54BJtapMAAACAY2JvcqVjYWxnZnNoYTI1NmNwYWRMAAAAAAAAAAAAAAAAZGhhc2hYII/XbAiS6nNHZzOxSVmeGI5yLbADIdttX5it1aai4Bg5ZG5hbWVuanVtYmYgbWFuaWZlc3RqZXhjbHVzaW9uc4GiZXN0YXJ0GQJNZmxlbmd0aBkeBAAAAj5qdW1iAAAAJ2p1bWRjMmNsABEAEIAAAKoAOJtxA2MycGEuY2xhaW0udjIAAAACD2Nib3KlY2FsZ2ZzaGEyNTZpc2lnbmF0dXJleE1zZWxmI2p1bWJmPS9jMnBhL3VybjpjMnBhOjhkNjM4Y2YwLTM1NTYtNGVjMS05OGYzLTk2NGRjZTM1ZDAxZS9jMnBhLnNpZ25hdHVyZWppbnN0YW5jZUlEeCx4bXA6aWlkOjllOGI4MDlmLTc4NjYtNDQ2ZC1iY2Y2LWU1YTM3NGNhMmM5OXJjcmVhdGVkX2Fzc2VydGlvbnODomN1cmx4LXNlbGYjanVtYmY9YzJwYS5hc3NlcnRpb25zL2MycGEuaW5ncmVkaWVudC52M2RoYXNoWCABNnGMHNtDFyJf7J1PnXHWA8S3kVN9XkIHg+R9ppx3+KJjdXJseCpzZWxmI2p1bWJmPWMycGEuYXNzZXJ0aW9ucy9jMnBhLmFjdGlvbnMudjJkaGFzaFggXSrdxfA5GaTfSoxUR1qJN395LiFL+asBz7VIioBR+ryiY3VybHgpc2VsZiNqdW1iZj1jMnBhLmFzc2VydGlvbnMvYzJwYS5oYXNoLmRhdGFkaGFzaFggaJderepgqRkvdmbfgc9YEv+3COk+b74fT/yFDYBjDCF0Y2xhaW1fZ2VuZXJhdG9yX2luZm+jZG5hbWVvQW50aHJvcGljIEZpbGVzZ3ZlcnNpb25lMS4wLjBrc3BlY1ZlcnNpb25lMi40LjAAABA4anVtYgAAAChqdW1kYzJjcwARABCAAACqADibcQNjMnBhLnNpZ25hdHVyZQAAABAIY2JvctKEWQISogEmGCFZAgowggIGMIIBjaADAgECAhRA5aAK7sI50L64g/oGQgU9Z1UTADAKBggqhkjOPQQDAzBJMRcwFQYDVQQKEw5BbnRocm9waWMsIFBCQzEuMCwGA1UEAxMlQW50aHJvcGljIENvbnRlbnQgQ3JlZGVudGlhbHMgUm9vdCBDQTAeFw0yNjA4MDcxODQzNTZaFw0yODA4MDYxOTQzNTZaMEQxFzAVBgNVBAoTDkFudGhyb3BpYywgUEJDMSkwJwYDVQQDEyBBbnRocm9waWMgQ2xhdWRlIENvbnRlbnQgU2lnbmluZzBZMBMGByqGSM49AgEGCCqGSM49AwEHA0IABJh6CmvLUBgFFNU0vUKlOVtE6djd17L5SuwX0LemFisBM3dkd/3cyjxFA3Qo5S46fX0/ihY0VZ7mfb9KF703t5OjWDBWMA4GA1UdDwEB/wQEAwIHgDAVBgNVHSUEDjAMBgorBgEEAYPoXgIBMAwGA1UdEwEB/wQCMAAwHwYDVR0jBBgwFoAUzlHiBIFOZFsj+OPEz5o+nMHXXMIwCgYIKoZIzj0EAwMDZwAwZAIwMXMdFJ4BetLLVY7ORuE9noqbbAZOZn/aArXyTwFAZfKrPzxF2vPoJNf1+UCdg1XGAjBwX1zd9WGqYkqmL5SFqw1QySjr1zJfpJM9+1rdDwSPLMOPOjKuiXjoU/pUUeG9RwmhY3BhZFkNngAAAAAAAAAAAAAAAAAAAAAAAAAAAAAAAAAAAAAAAAAAAAAAAAAAAAAAAAAAAAAAAAAAAAAAAAAAAAAAAAAAAAAAAAAAAAAAAAAAAAAAAAAAAAAAAAAAAAAAAAAAAAAAAAAAAAAAAAAAAAAAAAAAAAAAAAAAAAAAAAAAAAAAAAAAAAAAAAAAAAAAAAAAAAAAAAAAAAAAAAAAAAAAAAAAAAAAAAAAAAAAAAAAAAAAAAAAAAAAAAAAAAAAAAAAAAAAAAAAAAAAAAAAAAAAAAAAAAAAAAAAAAAAAAAAAAAAAAAAAAAAAAAAAAAAAAAAAAAAAAAAAAAAAAAAAAAAAAAAAAAAAAAAAAAAAAAAAAAAAAAAAAAAAAAAAAAAAAAAAAAAAAAAAAAAAAAAAAAAAAAAAAAAAAAAAAAAAAAAAAAAAAAAAAAAAAAAAAAAAAAAAAAAAAAAAAAAAAAAAAAAAAAAAAAAAAAAAAAAAAAAAAAAAAAAAAAAAAAAAAAAAAAAAAAAAAAAAAAAAAAAAAAAAAAAAAAAAAAAAAAAAAAAAAAAAAAAAAAAAAAAAAAAAAAAAAAAAAAAAAAAAAAAAAAAAAAAAAAAAAAAAAAAAAAAAAAAAAAAAAAAAAAAAAAAAAAAAAAAAAAAAAAAAAAAAAAAAAAAAAAAAAAAAAAAAAAAAAAAAAAAAAAAAAAAAAAAAAAAAAAAAAAAAAAAAAAAAAAAAAAAAAAAAAAAAAAAAAAAAAAAAAAAAAAAAAAAAAAAAAAAAAAAAAAAAAAAAAAAAAAAAAAAAAAAAAAAAAAAAAAAAAAAAAAAAAAAAAAAAAAAAAAAAAAAAAAAAAAAAAAAAAAAAAAAAAAAAAAAAAAAAAAAAAAAAAAAAAAAAAAAAAAAAAAAAAAAAAAAAAAAAAAAAAAAAAAAAAAAAAAAAAAAAAAAAAAAAAAAAAAAAAAAAAAAAAAAAAAAAAAAAAAAAAAAAAAAAAAAAAAAAAAAAAAAAAAAAAAAAAAAAAAAAAAAAAAAAAAAAAAAAAAAAAAAAAAAAAAAAAAAAAAAAAAAAAAAAAAAAAAAAAAAAAAAAAAAAAAAAAAAAAAAAAAAAAAAAAAAAAAAAAAAAAAAAAAAAAAAAAAAAAAAAAAAAAAAAAAAAAAAAAAAAAAAAAAAAAAAAAAAAAAAAAAAAAAAAAAAAAAAAAAAAAAAAAAAAAAAAAAAAAAAAAAAAAAAAAAAAAAAAAAAAAAAAAAAAAAAAAAAAAAAAAAAAAAAAAAAAAAAAAAAAAAAAAAAAAAAAAAAAAAAAAAAAAAAAAAAAAAAAAAAAAAAAAAAAAAAAAAAAAAAAAAAAAAAAAAAAAAAAAAAAAAAAAAAAAAAAAAAAAAAAAAAAAAAAAAAAAAAAAAAAAAAAAAAAAAAAAAAAAAAAAAAAAAAAAAAAAAAAAAAAAAAAAAAAAAAAAAAAAAAAAAAAAAAAAAAAAAAAAAAAAAAAAAAAAAAAAAAAAAAAAAAAAAAAAAAAAAAAAAAAAAAAAAAAAAAAAAAAAAAAAAAAAAAAAAAAAAAAAAAAAAAAAAAAAAAAAAAAAAAAAAAAAAAAAAAAAAAAAAAAAAAAAAAAAAAAAAAAAAAAAAAAAAAAAAAAAAAAAAAAAAAAAAAAAAAAAAAAAAAAAAAAAAAAAAAAAAAAAAAAAAAAAAAAAAAAAAAAAAAAAAAAAAAAAAAAAAAAAAAAAAAAAAAAAAAAAAAAAAAAAAAAAAAAAAAAAAAAAAAAAAAAAAAAAAAAAAAAAAAAAAAAAAAAAAAAAAAAAAAAAAAAAAAAAAAAAAAAAAAAAAAAAAAAAAAAAAAAAAAAAAAAAAAAAAAAAAAAAAAAAAAAAAAAAAAAAAAAAAAAAAAAAAAAAAAAAAAAAAAAAAAAAAAAAAAAAAAAAAAAAAAAAAAAAAAAAAAAAAAAAAAAAAAAAAAAAAAAAAAAAAAAAAAAAAAAAAAAAAAAAAAAAAAAAAAAAAAAAAAAAAAAAAAAAAAAAAAAAAAAAAAAAAAAAAAAAAAAAAAAAAAAAAAAAAAAAAAAAAAAAAAAAAAAAAAAAAAAAAAAAAAAAAAAAAAAAAAAAAAAAAAAAAAAAAAAAAAAAAAAAAAAAAAAAAAAAAAAAAAAAAAAAAAAAAAAAAAAAAAAAAAAAAAAAAAAAAAAAAAAAAAAAAAAAAAAAAAAAAAAAAAAAAAAAAAAAAAAAAAAAAAAAAAAAAAAAAAAAAAAAAAAAAAAAAAAAAAAAAAAAAAAAAAAAAAAAAAAAAAAAAAAAAAAAAAAAAAAAAAAAAAAAAAAAAAAAAAAAAAAAAAAAAAAAAAAAAAAAAAAAAAAAAAAAAAAAAAAAAAAAAAAAAAAAAAAAAAAAAAAAAAAAAAAAAAAAAAAAAAAAAAAAAAAAAAAAAAAAAAAAAAAAAAAAAAAAAAAAAAAAAAAAAAAAAAAAAAAAAAAAAAAAAAAAAAAAAAAAAAAAAAAAAAAAAAAAAAAAAAAAAAAAAAAAAAAAAAAAAAAAAAAAAAAAAAAAAAAAAAAAAAAAAAAAAAAAAAAAAAAAAAAAAAAAAAAAAAAAAAAAAAAAAAAAAAAAAAAAAAAAAAAAAAAAAAAAAAAAAAAAAAAAAAAAAAAAAAAAAAAAAAAAAAAAAAAAAAAAAAAAAAAAAAAAAAAAAAAAAAAAAAAAAAAAAAAAAAAAAAAAAAAAAAAAAAAAAAAAAAAAAAAAAAAAAAAAAAAAAAAAAAAAAAAAAAAAAAAAAAAAAAAAAAAAAAAAAAAAAAAAAAAAAAAAAAAAAAAAAAAAAAAAAAAAAAAAAAAAAAAAAAAAAAAAAAAAAAAAAAAAAAAAAAAAAAAAAAAAAAAAAAAAAAAAAAAAAAAAAAAAAAAAAAAAAAAAAAAAAAAAAAAAAAAAAAAAAAAAAAAAAAAAAAAAAAAAAAAAAAAAAAAAAAAAAAAAAAAAAAAAAAAAAAAAAAAAAAAAAAAAAAAAAAAAAAAAAAAAAAAAAAAAAAAAAAAAAAAAAAAAAAAAAAAAAAAAAAAAAAAAAAAAAAAAAAAAAAAAAAAAAAAAAAAAAAAAAAAAAAAAAAAAAAAAAAAAAAAAAAAAAAAAAAAAAAAAAAAAAAAAAAAAAAAAAAAAAAAAAAAAAAAAAAAAAAAAAAAAAAAAAAAAAAAAAAAAAAAAAAAAAAAAAAAAAAAAAAAAAAAAAAAAAAAAAAAAAAAAAAAAAAAAAAAAAAAAAAAAAAAAAAAAAAAAAAAAAAAAAAAAAAAAAAAAAAAAAAAAAAAAAAAAAAAAAAAAAAAAAAAAAAAAAAAAAAAAAAAAAAAAAAAAAAAAAAAAAAAAAAAAAAAAAAAAAAAAAAAAAAAAAAAAAAAAAAAAAAAAAAAAAAAAAAAAAAAAAAAAAAAAAAAAAAAAAAAAAAAAAAAAAAAAAAAAAAAAAAAAAAAAAAAAAAAAAAAAAAAAAAAAAAAAAAAAAAAAAAAAAAAAAAAAAAAAAAAAAAAAAAAAAAAAAAAAAAAAAAAAAAAAAAAAAAAAAAAAAAAAAAAAAAAAAAAAAAAAAAAAAAAAAAAAAAAAAAAAAAAAAAAAAAAAAAAAAAAAAAAAAAAAAAAAAAAAAAAAAAAAAAAAAAAAAAAAAAAAAAAAAAAAAAAAAAAAAAAAAAAAAAAAAAAAAAAAAAAAAAAAAAAAAAAAAAAAAAAAAAAAAAAAAAAAAAAAAAAAAAAAAAAAAAAAAAAAAAAAAAAAAAAAAAAAAAAAAAAAAAAAAAAAAAAAAAAAAAAAAAAAAAAAAAAAAAAAAAAAAAAAAAAAAAAAAAAAAAAAAAAAAAAAAAAAAAAAAAAAAAAAAAAAAAAAAAAAAAAAAAAAAAAAAAAAAAAAAAAAAAAAAAAAAAAAAAAAAAAAAAAAAAAAAAAAAAAAAAAAAAAAAAAAAAAAAAAAAAAAAAAAAAAAAAAAAAAAAAAAAAAAAAAAAAAAAAAAAAAAAAAAAAAAAAAAAAAAAAAAAAAAAAAAAAAAAAAAAAAAAAAAAAAAAAAAAAAAAAAAAAAAAAAAAAAAAAAAAAAAAAAAAAAAAAAAAAAAAAAAAAAAAAAAAAAAAAAAAAAAAAAAAAAAAAAAAAAAAAAAAAAAAAAAAAAAAAAAAAAAAAAAAAAAAAAAAAAAAAAAAAAAAAAAAAAAAAAAAAAAAAAAAAAAAAAAAAAAAAAAAAAAAAAAAAAAAAAAAAAAAAAAAAAAAAAAAAAAAAAAAAAAAAAAAAAAAAAAAAAAAAAAAAAAAAAAAAAAAAAAAAAAAAAAAAAAAAAAAAAAAAAAAAAAAAAAAAAAAAAAAAAAAAAAAAAAAAAAAAAAAAAAAAAAAAAAAAAAAAAAAAAAAAAAAAAAAAAAAAAAAAAAAAAAAAAAAAAAAAAAAAAAAAAAAAAAAAAAAAAAAAAAAAAAAAAAAAAAAAAAAAAAAAAAAAAAAAAAAAAAAAAAAAAAAAAAAAAAAAAAAAAAAAAAAAAAAAAAAAAAAAAAAAAAAAAAAAAAAAAAAAAAAAAAAAAAAAAAAAAAAAAAAAAAAAAAAAAAAAAAAAAAAAAAAAAAAAAAAAAAAAAAAAAAAAAAAAAAAAAAAAAAAAAAAAAAAAAAAAAAAAAAAAAAAAAAAAAAAAAAAAAAAAAAAAAAAAAAAAAAAAAAAAAPZYQMoot9eGU6oBFLcU1d5YnYcVHuJUua4PNl3v2qmh6X+DW2ggaBnrNSPMJUtYtffLwpO+PbZMbnour5uVHqJVKFo=</c2pa:manifest></metadata><defs
     id="defs2"><inkscape:path-effect
       effect="fillet_chamfer"
       id="path-effect25"
       is_visible="true"
       lpeversion="1"
       nodesatellites_param="F,0,0,1,0,0.75,0,1 @ F,0,0,1,0,0.75,0,1 @ F,0,0,1,0,0.75,0,1 @ F,0,0,1,0,0.75,0,1 @ F,0,0,1,0,0.75,0,1 @ F,0,0,1,0,0.75,0,1"
       radius="1"
       unit="px"
       method="auto"
       mode="F"
       chamfer_steps="1"
       flexible="false"
       use_knot_distance="true"
       apply_no_radius="true"
       apply_with_radius="true"
       only_selected="false"
       hide_knots="false" /><inkscape:perspective
       sodipodi:type="inkscape:persp3d"
       inkscape:vp_x="2.3882694 : 17.678636 : 1"
       inkscape:vp_y="0 : 1000 : 0"
       inkscape:vp_z="22.486271 : 18.156404 : 1"
       inkscape:persp3d-origin="12 : 8 : 1"
       id="perspective1" /><inkscape:path-effect
       effect="fillet_chamfer"
       id="path-effect25-9"
       is_visible="true"
       lpeversion="1"
       nodesatellites_param="F,0,0,1,0,0.75,0,1 @ F,0,0,1,0,0.75,0,1 @ F,0,0,1,0,0.75,0,1 @ F,0,0,1,0,0.75,0,1 @ F,0,0,1,0,0.75,0,1 @ F,0,0,1,0,0.75,0,1"
       radius="1"
       unit="px"
       method="auto"
       mode="F"
       chamfer_steps="1"
       flexible="false"
       use_knot_distance="true"
       apply_no_radius="true"
       apply_with_radius="true"
       only_selected="false"
       hide_knots="false" /></defs><sodipodi:namedview
     id="namedview2"
     pagecolor="#000000"
     bordercolor="#999999"
     borderopacity="1"
     inkscape:showpageshadow="0"
     inkscape:pageopacity="0"
     inkscape:pagecheckerboard="0"
     inkscape:deskcolor="#d1d1d1"
     inkscape:zoom="22.627417"
     inkscape:cx="8.3526988"
     inkscape:cy="13.589708"
     inkscape:window-width="1904"
     inkscape:window-height="1014"
     inkscape:window-x="1928"
     inkscape:window-y="26"
     inkscape:window-maximized="1"
     inkscape:current-layer="svg2" /><g
     id="g1"
     inkscape:label="borders"
     style="opacity:0.5;mix-blend-mode:normal;stroke:#ffffff;stroke-opacity:1"><path
       id="path1"
       style="display:inline;opacity:1;fill:none;stroke:#ffffff;stroke-width:0.9;stroke-linecap:round;stroke-linejoin:round;stroke-dasharray:none;stroke-opacity:1"
       d="m 22.16226,17.346889 0.0069,-10.4519106 A 1.2415886,1.2415886 58.903174 0 0 21.506036,5.7955537 L 12.868192,1.2474069 a 1.4244007,1.4244007 2.2517523e-6 0 0 -1.327256,-1e-7 L 2.9030902,5.7955537 A 1.2415944,1.2415944 121.09695 0 0 2.2399547,6.8949784 l 0.00686,10.4519106 a 1.2213532,1.2213532 58.409406 0 0 0.6695985,1.088817 l 8.619036,4.364452 a 1.481117,1.481117 179.99995 0 0 1.338211,-2e-6 l 8.618994,-4.364448 a 1.2213613,1.2213613 121.59066 0 0 0.669601,-1.088819 z"
       sodipodi:nodetypes="ccccccc"
       inkscape:original-d="m 22.161764,18.096889 0.0079,-11.9519104 -9.9651,-5.24699666 -9.9651019,5.24699666 0.00785,11.9519104 9.9572479,5.042086 z"
       inkscape:path-effect="#path-effect25" /><path
       d="M 21.583834,6.4411755 12.204517,11.209778 2.9105242,6.4845566 M 12.20352,22.491011 12.20612,11.207914"
       style="display:inline;opacity:1;fill:none;stroke:#ffffff;stroke-width:0.9;stroke-linecap:round;stroke-linejoin:round;stroke-dasharray:none;stroke-opacity:1"
       id="path1-2"
       inkscape:label="path1-2"
       sodipodi:nodetypes="ccccc" /></g><g
     id="g10"
     inkscape:label="fill"
     style="display:inline;opacity:0.247"><path
       id="path4"
       style="display:inline;opacity:1;fill:#ffffff;stroke:#ffffff;stroke-width:0;stroke-linecap:round;stroke-linejoin:miter;stroke-dasharray:none"
       d="m 16.271484,2.0449219 c -0.20787,0 -0.41574,0.050492 -0.605468,0.1503906 L 4.2929688,8.1816406 16.273438,14.273438 28.253906,8.1835938 16.876953,2.1953125 C 16.687225,2.0954136 16.479355,2.0449219 16.271484,2.0449219 Z M 3.5859375,9.1679688 c -2.07e-4,0.00869 -5.7e-6,0.016666 0,0.025391 l 0.00977,13.9335932 c 2.555e-4,0.388664 0.2157566,0.744341 0.5625,0.919922 l 11.4921875,5.818359 c 0.0071,0.0036 0.01431,0.0063 0.02148,0.0098 l 0.002,-14.560547 -12.0645,-6.1347995 a 0.59999999,0.59999999 0 0 1 -0.023437,-0.011719 z m 25.3730465,0 L 16.875,15.3125 16.873,29.875 c 0.0068,-0.0033 0.01281,-0.0064 0.01953,-0.0098 l 11.492188,-5.818359 c 0.346748,-0.175584 0.566149,-0.531259 0.566406,-0.919922 l 0.0078,-13.9335936 c 6e-6,-0.00829 1.85e-4,-0.017135 0,-0.025391 z"
       transform="scale(0.75)" /></g><path
     style="fill:#ffffff;fill-opacity:1"
     d="m 15.20688,15.25626 v -0.205479 h 0.616437 0.616437 V 14.845302 14.639823 H 16.028796 15.617838 V 14.434344 14.228865 H 15.412359 15.20688 v -0.410958 -0.410958 h 0.205479 0.205479 V 13.20147 12.995991 h 0.616437 0.616437 v 1.027395 1.027395 h -0.205479 -0.205479 v 0.205479 0.205479 H 15.823317 15.20688 Z m 1.232874,-1.438353 v -0.410958 h -0.410958 -0.410958 v 0.410958 0.410958 h 0.410958 0.410958 z M 5.3438889,14.434344 v -0.205479 h -0.205479 -0.205479 v -1.232874 -1.232874 h 0.205479 0.205479 v 1.232874 1.232874 h 0.205479 0.205479 v 0.205479 0.205479 h -0.205479 -0.205479 z m 1.2328739,0 V 14.228865 H 6.3712838 6.1658049 v -0.410958 -0.410958 h 0.2054789 0.205479 V 13.20147 12.995991 h 0.410958 0.410958 v 0.205479 0.205479 h 0.205479 0.205479 v 0.410958 0.410958 h -0.205479 -0.205479 v 0.205479 0.205479 h -0.410958 -0.410958 z m 0.821916,-0.616437 v -0.410958 h -0.410958 -0.410958 v 0.410958 0.410958 h 0.410958 0.410958 z m 1.2328739,0.616437 v -0.205479 h -0.205479 -0.205479 v -0.205479 -0.205479 h 0.205479 0.205479 v -0.205479 -0.205479 h 0.410958 0.4109579 V 13.20147 12.995991 H 8.8370317 8.2205947 v -0.205479 -0.205479 h 0.616437 0.6164369 v 0.205479 0.205479 h 0.205479 0.205479 v 0.821916 0.821916 H 9.2479897 8.6315527 Z M 9.4534686,14.023386 V 13.817907 H 9.0425107 8.6315527 v 0.205479 0.205479 h 0.410958 0.4109579 z m 1.2328744,0.410958 v -0.205479 h -0.205479 -0.205479 v -0.410958 -0.410958 h 0.205479 0.205479 V 13.20147 12.995991 h 0.410958 0.410958 v -0.616437 -0.616437 h 0.205478 0.205479 v 1.438353 1.438353 H 11.30278 10.686343 Z m 0.821916,-0.616437 v -0.410958 h -0.410958 -0.410958 v 0.410958 0.410958 h 0.410958 0.410958 z m 0.821915,0.205479 v -0.616437 h 0.205479 0.205479 v 0.616437 0.616437 h -0.205479 -0.205479 z m 0.821916,-0.205479 v -0.821916 h 0.616437 0.616437 v 0.205479 0.205479 h 0.205479 0.205479 v 0.616437 0.616437 h -0.205479 -0.205479 v -0.616437 -0.616437 h -0.410958 -0.410958 v 0.616437 0.616437 H 13.357569 13.15209 Z m 4.520538,0.616437 v -0.205479 h 0.205479 0.205479 v 0.205479 0.205479 h -0.205479 -0.205479 z m 0.821916,0 v -0.205479 h 0.205479 0.205479 v 0.205479 0.205479 h -0.205479 -0.205479 z m 0.821916,0 v -0.205479 h 0.205479 0.205479 v 0.205479 0.205479 H 19.521939 19.31646 Z m -6.986286,-1.643832 v -0.205479 h 0.205479 0.205479 v 0.205479 0.205479 h -0.205479 -0.205479 z"
     id="path13926"
     inkscape:label="Text" /></svg>
